<svg width="135" height="211" viewBox="0 0 135 211" fill="none" xmlns="http://www.w3.org/2000/svg">
<path id="Vector" d="M0.474609 210.962C6.17922 185.291 11.5986 160.191 16.7328 135.661C18.8245 125.773 20.9161 115.22 23.0078 104.001C25.2897 92.5915 27.5715 81.0872 29.8534 69.4878C32.1352 57.8884 34.2269 46.9545 36.1285 36.6862C38.03 26.2278 39.5512 17.1004 40.6922 9.30408C48.2983 7.02223 56.4749 4.93054 65.222 3.029C74.1592 1.12746 82.1457 0.176697 89.1814 0.176697C100.591 0.176697 109.623 2.6487 116.278 7.5927C122.934 12.3465 127.688 18.8118 130.54 26.9884C133.392 35.165 134.818 44.1022 134.818 53.8001C134.818 64.4487 132.822 74.717 128.828 84.605C125.025 94.3028 119.796 103.05 113.141 110.846C106.676 118.643 99.1645 124.823 90.6075 129.386C82.2408 133.95 73.4937 136.232 64.3663 136.232H61.2288C59.7075 142.697 58.2814 149.733 56.9503 157.339C55.6192 164.945 54.4783 171.981 53.5275 178.446C52.7669 182.249 52.1014 186.052 51.5309 189.855C50.9605 193.658 50.39 197.461 49.8196 201.264L0.474609 210.962ZM66.9334 106.283C71.3069 105.142 75.6805 102.289 80.054 97.7256C84.4275 92.9718 88.0405 86.9819 90.8928 79.7561C93.7451 72.5302 95.1712 64.6389 95.1712 56.0819C95.1712 49.0462 93.5549 43.7219 90.3223 40.109C87.2799 36.4961 83.8571 34.6896 80.054 34.6896C77.9623 47.2398 75.8706 59.1244 73.7789 70.3435C71.6872 81.5625 69.4054 93.5422 66.9334 106.283Z" fill="#00C1AA"/>
</svg>
